<?xml version="1.0" encoding="UTF-8"?>
<!DOCTYPE svg PUBLIC "-//W3C//DTD SVG 1.1//EN" "http://www.w3.org/Graphics/SVG/1.1/DTD/svg11.dtd">
<svg xmlns="http://www.w3.org/2000/svg" version="1.1" width="1024px" height="1536px" style="shape-rendering:geometricPrecision; text-rendering:geometricPrecision; image-rendering:optimizeQuality; fill-rule:evenodd; clip-rule:evenodd" xmlns:xlink="http://www.w3.org/1999/xlink">
<g><path style="opacity:1" fill="#f9f9f9" d="M -0.5,-0.5 C 340.833,-0.5 682.167,-0.5 1023.5,-0.5C 1023.5,511.5 1023.5,1023.5 1023.5,1535.5C 682.167,1535.5 340.833,1535.5 -0.5,1535.5C -0.5,1023.5 -0.5,511.5 -0.5,-0.5 Z"/></g>
<g><path style="opacity:1" fill="#9ab1ef" d="M 671.5,455.5 C 667.507,453.847 663.507,452.18 659.5,450.5C 659.023,449.522 658.357,448.689 657.5,448C 657.833,447.667 658.167,447.333 658.5,447C 656.285,445.956 653.952,445.29 651.5,445C 651.957,444.586 652.291,444.086 652.5,443.5C 644.161,438.02 635.827,433.186 627.5,429C 628.711,428.107 628.711,427.274 627.5,426.5C 624.173,424.278 620.506,423.112 616.5,423C 614.404,421.234 612.071,419.901 609.5,419C 604.565,418.368 599.899,416.868 595.5,414.5C 594.094,415.668 592.928,415.335 592,413.5C 590.701,414.98 589.034,415.646 587,415.5C 584.266,414.677 581.599,413.677 579,412.5C 578.127,412.735 577.293,413.069 576.5,413.5C 575.494,413.062 575.494,412.396 576.5,411.5C 577.376,410.749 578.376,410.249 579.5,410C 576.525,408.693 573.358,407.859 570,407.5C 567.41,408.461 564.743,409.128 562,409.5C 551.037,409.446 540.704,409.446 531,409.5C 530.25,408.874 529.416,408.374 528.5,408C 533.423,406.314 538.423,404.981 543.5,404C 541.204,403.909 538.87,404.076 536.5,404.5C 535.167,404.333 533.833,404.167 532.5,404C 532.833,403.667 533.167,403.333 533.5,403C 515.488,401.68 497.655,403.18 480,407.5C 478.439,407.397 476.939,407.063 475.5,406.5C 473.077,408.086 470.41,409.086 467.5,409.5C 466.702,409.043 466.369,408.376 466.5,407.5C 534.13,391.825 596.796,402.992 654.5,441C 660.652,445.323 666.319,450.157 671.5,455.5 Z"/></g>
<g><path style="opacity:1" fill="#96aff8" d="M 671.5,455.5 C 686.83,468 700.33,482.334 712,498.5C 725.08,517.66 735.246,538.327 742.5,560.5C 743.288,564.868 744.288,569.201 745.5,573.5C 744.937,576.357 744.27,579.19 743.5,582C 743.755,583.326 744.422,584.326 745.5,585C 744.643,585.689 743.977,586.522 743.5,587.5C 744.615,588.598 744.615,589.765 743.5,591C 743.644,594.83 745.31,597.663 748.5,599.5C 749.583,598.635 749.749,597.635 749,596.5C 748.107,597.711 747.274,597.711 746.5,596.5C 747.015,594.775 747.682,593.108 748.5,591.5C 748.833,592 749.167,592.5 749.5,593C 751.101,601.405 751.934,609.905 752,618.5C 752.556,616.405 753.056,616.238 753.5,618C 753.511,631.487 753.011,644.987 752,658.5C 752.333,655.5 752.667,652.5 753,649.5C 753.139,652.636 753.972,655.636 755.5,658.5C 755.679,664.404 755.012,670.071 753.5,675.5C 752.052,678.937 750.719,682.603 749.5,686.5C 749.931,687.293 750.265,688.127 750.5,689C 748.609,697.917 746.442,706.75 744,715.5C 742.743,717.679 741.243,719.679 739.5,721.5C 741.005,722.842 741.672,724.508 741.5,726.5C 734.874,747.425 724.874,766.425 711.5,783.5C 710.292,784.234 708.959,784.567 707.5,784.5C 707.649,785.552 707.483,786.552 707,787.5C 706.667,787.167 706.333,786.833 706,786.5C 705.751,787.624 705.251,788.624 704.5,789.5C 704.264,788.753 703.93,787.92 703.5,787C 702.365,786.251 701.365,786.417 700.5,787.5C 699.833,789.167 699.167,790.833 698.5,792.5C 699.262,792.911 700.262,793.077 701.5,793C 698.043,795.282 696.043,798.448 695.5,802.5C 694.914,802.291 694.414,801.957 694,801.5C 693.667,803.167 693.333,804.833 693,806.5C 687.486,811.24 681.986,816.073 676.5,821C 674.294,822.684 672.794,824.851 672,827.5C 671.085,826.672 670.419,825.672 670,824.5C 667.581,826.754 665.748,829.421 664.5,832.5C 659.642,836.525 654.642,840.358 649.5,844C 648.552,844.483 647.552,844.649 646.5,844.5C 646.5,845.5 646.5,846.5 646.5,847.5C 641.46,848.861 637.126,851.528 633.5,855.5C 630.618,857.108 627.618,858.441 624.5,859.5C 623.614,860.325 623.281,861.325 623.5,862.5C 610.908,869.793 597.575,875.46 583.5,879.5C 576.869,879.82 570.536,881.32 564.5,884C 556.233,884.942 548.066,886.442 540,888.5C 538.106,888.42 536.273,888.087 534.5,887.5C 532.615,888.609 530.615,889.443 528.5,890C 523.47,890.271 518.47,890.771 513.5,891.5C 502.215,890.136 490.881,889.302 479.5,889C 474.182,888.393 469.182,886.893 464.5,884.5C 461.154,885.955 458.321,885.288 456,882.5C 453.599,883.602 451.099,883.769 448.5,883C 445.431,881.139 442.431,879.306 439.5,877.5C 444.803,876.679 450.137,876.679 455.5,877.5C 476.944,879.389 498.277,878.556 519.5,875C 527.52,873.161 535.52,871.328 543.5,869.5C 549.747,869.626 555.08,869.126 559.5,868C 558.833,867.667 558.167,867.333 557.5,867C 560.939,866.783 563.605,865.283 565.5,862.5C 567.826,861.61 570.159,861.443 572.5,862C 571.72,860.927 571.887,859.76 573,858.5C 574.458,859.747 575.958,859.747 577.5,858.5C 577.833,859.167 578.167,859.833 578.5,860.5C 579.308,860.192 579.975,859.692 580.5,859C 579.269,857.817 579.269,856.651 580.5,855.5C 584.706,853.904 588.373,851.57 591.5,848.5C 643.67,818.191 681.503,775.191 705,719.5C 733.125,636.577 720.125,560.911 666,492.5C 657.5,484.667 649.333,476.5 641.5,468C 633.983,462.637 626.65,457.137 619.5,451.5C 618.031,449.043 615.864,447.376 613,446.5C 612.353,442.332 610.186,440.666 606.5,441.5C 601.924,439.777 597.591,437.61 593.5,435C 596.267,434.331 596.767,433.164 595,431.5C 593.441,432.029 591.941,432.696 590.5,433.5C 590.167,432.833 589.833,432.167 589.5,431.5C 587.234,432.557 585.234,432.057 583.5,430C 581.866,429.506 580.199,429.34 578.5,429.5C 578.349,426.282 577.516,425.949 576,428.5C 574.829,427.107 573.329,426.273 571.5,426C 575.709,425.206 576.375,423.372 573.5,420.5C 571.054,422.076 568.221,423.41 565,424.5C 553.983,421.881 542.816,420.215 531.5,419.5C 516.847,418.723 502.18,418.389 487.5,418.5C 484.544,417.863 481.544,417.363 478.5,417C 479.167,416.667 479.833,416.333 480.5,416C 480.324,414.308 479.824,412.808 479,411.5C 477.261,411.566 475.428,412.233 473.5,413.5C 471.199,412.604 468.866,412.438 466.5,413C 468.595,413.556 468.762,414.056 467,414.5C 465.838,413.813 464.672,413.647 463.5,414C 464.833,414.667 464.833,415.333 463.5,416C 467.176,416.172 471.843,416.839 477.5,418C 477.167,418.333 476.833,418.667 476.5,419C 472.292,418.713 468.125,418.546 464,418.5C 463.097,419.701 461.931,420.535 460.5,421C 456.798,421.676 453.131,422.509 449.5,423.5C 448.833,423.167 448.167,422.833 447.5,422.5C 448.313,421.186 449.313,420.019 450.5,419C 448.5,418.333 446.5,417.667 444.5,417C 451.339,414.788 457.673,411.955 463.5,408.5C 464.391,407.89 465.391,407.557 466.5,407.5C 466.369,408.376 466.702,409.043 467.5,409.5C 470.41,409.086 473.077,408.086 475.5,406.5C 476.939,407.063 478.439,407.397 480,407.5C 497.655,403.18 515.488,401.68 533.5,403C 533.167,403.333 532.833,403.667 532.5,404C 533.833,404.167 535.167,404.333 536.5,404.5C 538.87,404.076 541.204,403.909 543.5,404C 538.423,404.981 533.423,406.314 528.5,408C 529.416,408.374 530.25,408.874 531,409.5C 540.704,409.446 551.037,409.446 562,409.5C 564.743,409.128 567.41,408.461 570,407.5C 573.358,407.859 576.525,408.693 579.5,410C 578.376,410.249 577.376,410.749 576.5,411.5C 575.494,412.396 575.494,413.062 576.5,413.5C 577.293,413.069 578.127,412.735 579,412.5C 581.599,413.677 584.266,414.677 587,415.5C 589.034,415.646 590.701,414.98 592,413.5C 592.928,415.335 594.094,415.668 595.5,414.5C 599.899,416.868 604.565,418.368 609.5,419C 612.071,419.901 614.404,421.234 616.5,423C 620.506,423.112 624.173,424.278 627.5,426.5C 628.711,427.274 628.711,428.107 627.5,429C 635.827,433.186 644.161,438.02 652.5,443.5C 652.291,444.086 651.957,444.586 651.5,445C 653.952,445.29 656.285,445.956 658.5,447C 658.167,447.333 657.833,447.667 657.5,448C 658.357,448.689 659.023,449.522 659.5,450.5C 663.507,452.18 667.507,453.847 671.5,455.5 Z"/></g>
<g><path style="opacity:1" fill="#99adea" d="M 531.5,419.5 C 542.816,420.215 553.983,421.881 565,424.5C 568.221,423.41 571.054,422.076 573.5,420.5C 576.375,423.372 575.709,425.206 571.5,426C 573.329,426.273 574.829,427.107 576,428.5C 577.516,425.949 578.349,426.282 578.5,429.5C 580.199,429.34 581.866,429.506 583.5,430C 585.234,432.057 587.234,432.557 589.5,431.5C 589.833,432.167 590.167,432.833 590.5,433.5C 591.941,432.696 593.441,432.029 595,431.5C 596.767,433.164 596.267,434.331 593.5,435C 597.591,437.61 601.924,439.777 606.5,441.5C 610.186,440.666 612.353,442.332 613,446.5C 615.864,447.376 618.031,449.043 619.5,451.5C 592.389,434.606 563.055,423.939 531.5,419.5 Z"/></g>
<g><path style="opacity:1" fill="#96aff9" d="M 479.5,430.5 C 495.467,430.812 511.467,430.979 527.5,431C 536.891,432.445 545.891,434.278 554.5,436.5C 552.187,437.273 549.854,437.94 547.5,438.5C 546.614,437.675 546.281,436.675 546.5,435.5C 544.143,435.337 541.81,435.503 539.5,436C 547.5,436.667 547.5,437.333 539.5,438C 540.793,438.49 542.127,438.657 543.5,438.5C 543.899,441.971 545.399,442.304 548,439.5C 550.088,440.308 552.088,441.308 554,442.5C 555.593,440.715 557.093,440.548 558.5,442C 556.484,442.197 554.484,443.197 552.5,445C 550.236,445.236 548.069,445.736 546,446.5C 545.586,446.043 545.086,445.709 544.5,445.5C 543.571,446.689 543.238,448.022 543.5,449.5C 540.06,450.091 536.727,451.091 533.5,452.5C 525.345,462.276 526.012,463.276 535.5,455.5C 536.848,457.461 538.181,457.628 539.5,456C 539.167,455.667 538.833,455.333 538.5,455C 541.242,453.93 543.742,452.43 546,450.5C 546.667,451.5 546.667,452.5 546,453.5C 544.519,454.471 543.685,455.804 543.5,457.5C 530.187,470.488 514.187,478.154 495.5,480.5C 489.397,480.267 483.397,480.934 477.5,482.5C 473.296,481.609 469.13,481.942 465,483.5C 460.11,482.697 455.276,482.364 450.5,482.5C 444.307,484.405 437.974,485.405 431.5,485.5C 431.5,484.5 431.5,483.5 431.5,482.5C 434.187,482.664 436.854,482.497 439.5,482C 435.15,481.632 430.817,481.132 426.5,480.5C 424.423,480.692 422.423,481.192 420.5,482C 421.579,482.956 422.745,483.789 424,484.5C 426.064,483.409 428.231,483.242 430.5,484C 429.167,484.667 427.833,485.333 426.5,486C 404.169,486.5 381.836,486.667 359.5,486.5C 360.781,483.002 362.948,480.002 366,477.5C 366.333,478.5 366.667,479.5 367,480.5C 369.175,479.745 371.341,478.912 373.5,478C 370.833,477 370.833,476 373.5,475C 373.167,474.667 372.833,474.333 372.5,474C 374,472.5 375.5,471 377,469.5C 378.073,470.28 379.24,470.113 380.5,469C 381.758,467.259 382.758,465.426 383.5,463.5C 412.935,445.354 444.935,434.354 479.5,430.5 Z"/></g>
<g><path style="opacity:1" fill="#9bb1f0" d="M 463.5,408.5 C 457.673,411.955 451.339,414.788 444.5,417C 446.5,417.667 448.5,418.333 450.5,419C 449.313,420.019 448.313,421.186 447.5,422.5C 448.167,422.833 448.833,423.167 449.5,423.5C 453.131,422.509 456.798,421.676 460.5,421C 461.931,420.535 463.097,419.701 464,418.5C 468.125,418.546 472.292,418.713 476.5,419C 476.833,418.667 477.167,418.333 477.5,418C 471.843,416.839 467.176,416.172 463.5,416C 464.833,415.333 464.833,414.667 463.5,414C 464.672,413.647 465.838,413.813 467,414.5C 468.762,414.056 468.595,413.556 466.5,413C 468.866,412.438 471.199,412.604 473.5,413.5C 475.428,412.233 477.261,411.566 479,411.5C 479.824,412.808 480.324,414.308 480.5,416C 479.833,416.333 479.167,416.667 478.5,417C 481.544,417.363 484.544,417.863 487.5,418.5C 441.484,423.842 399.484,439.842 361.5,466.5C 389.889,438.601 423.889,419.268 463.5,408.5 Z"/></g>
<g><path style="opacity:1" fill="#99b2f1" d="M 543.5,457.5 C 543.685,455.804 544.519,454.471 546,453.5C 546.667,452.5 546.667,451.5 546,450.5C 543.742,452.43 541.242,453.93 538.5,455C 538.833,455.333 539.167,455.667 539.5,456C 538.181,457.628 536.848,457.461 535.5,455.5C 526.012,463.276 525.345,462.276 533.5,452.5C 536.727,451.091 540.06,450.091 543.5,449.5C 543.238,448.022 543.571,446.689 544.5,445.5C 545.086,445.709 545.586,446.043 546,446.5C 548.069,445.736 550.236,445.236 552.5,445C 554.484,443.197 556.484,442.197 558.5,442C 557.093,440.548 555.593,440.715 554,442.5C 552.088,441.308 550.088,440.308 548,439.5C 545.399,442.304 543.899,441.971 543.5,438.5C 542.127,438.657 540.793,438.49 539.5,438C 547.5,437.333 547.5,436.667 539.5,436C 541.81,435.503 544.143,435.337 546.5,435.5C 546.281,436.675 546.614,437.675 547.5,438.5C 549.854,437.94 552.187,437.273 554.5,436.5C 545.891,434.278 536.891,432.445 527.5,431C 511.467,430.979 495.467,430.812 479.5,430.5C 508.148,426.813 536.481,428.98 564.5,437C 565.5,439.091 564.833,440.757 562.5,442C 556.583,447.758 550.25,452.924 543.5,457.5 Z"/></g>
<g><path style="opacity:1" fill="#a1b5ef" d="M 383.5,463.5 C 382.758,465.426 381.758,467.259 380.5,469C 379.24,470.113 378.073,470.28 377,469.5C 375.5,471 374,472.5 372.5,474C 372.833,474.333 373.167,474.667 373.5,475C 370.833,476 370.833,477 373.5,478C 371.341,478.912 369.175,479.745 367,480.5C 366.667,479.5 366.333,478.5 366,477.5C 362.948,480.002 360.781,483.002 359.5,486.5C 381.836,486.667 404.169,486.5 426.5,486C 427.833,485.333 429.167,484.667 430.5,484C 428.231,483.242 426.064,483.409 424,484.5C 422.745,483.789 421.579,482.956 420.5,482C 422.423,481.192 424.423,480.692 426.5,480.5C 430.817,481.132 435.15,481.632 439.5,482C 436.854,482.497 434.187,482.664 431.5,482.5C 431.5,483.5 431.5,484.5 431.5,485.5C 437.974,485.405 444.307,484.405 450.5,482.5C 455.276,482.364 460.11,482.697 465,483.5C 469.13,481.942 473.296,481.609 477.5,482.5C 483.397,480.934 489.397,480.267 495.5,480.5C 487.806,482.867 479.806,484.367 471.5,485C 453.191,486.61 434.858,487.776 416.5,488.5C 394.833,487.833 373.167,487.167 351.5,486.5C 361.1,477.365 371.766,469.699 383.5,463.5 Z"/></g>
<g><path style="opacity:1" fill="#96a2c9" d="M 351.5,486.5 C 373.167,487.167 394.833,487.833 416.5,488.5C 394.49,488.833 372.49,488.5 350.5,487.5C 350.624,486.893 350.957,486.56 351.5,486.5 Z"/></g>
<g><path style="opacity:1" fill="#3256ca" d="M 602.5,553.5 C 599.868,551.887 597.202,550.22 594.5,548.5C 593.729,550.862 592.895,553.196 592,555.5C 591.504,553.965 591.67,552.465 592.5,551C 592.138,549.775 591.638,548.609 591,547.5C 590.259,548.641 589.425,548.641 588.5,547.5C 587.148,548.524 585.815,549.524 584.5,550.5C 586.066,547.588 588.066,544.921 590.5,542.5C 594.573,546.183 598.573,549.85 602.5,553.5 Z"/></g>
<g><path style="opacity:1" fill="#2d57d2" d="M 583.5,551.5 C 581.689,554.444 579.856,557.444 578,560.5C 577.51,561.793 577.343,563.127 577.5,564.5C 573.921,564.766 573.587,566.099 576.5,568.5C 574.244,569.421 573.244,571.088 573.5,573.5C 571.774,573.185 570.107,573.019 568.5,573C 570.98,573.915 571.647,575.415 570.5,577.5C 572.628,580.345 572.795,583.012 571,585.5C 569.505,583.89 569.339,582.224 570.5,580.5C 568.803,579.636 567.637,578.303 567,576.5C 565.315,578.017 563.815,579.684 562.5,581.5C 563.5,583.5 564.5,585.5 565.5,587.5C 561.932,589.322 559.598,588.322 558.5,584.5C 555.929,585.728 554.595,587.728 554.5,590.5C 556.144,590.714 557.644,590.38 559,589.5C 559.127,590.777 558.627,591.943 557.5,593C 558.167,594 558.833,595 559.5,596C 559.167,596.5 558.833,597 558.5,597.5C 556.828,595.329 554.995,593.329 553,591.5C 551.027,593.637 548.861,595.637 546.5,597.5C 558.081,581.583 570.414,566.25 583.5,551.5 Z"/></g>
<g><path style="opacity:1" fill="#f9f9f9" d="M 443.5,688.5 C 435.777,695.86 426.777,700.86 416.5,703.5C 403.496,704.249 391.496,701.249 380.5,694.5C 360.104,678.583 355.27,658.916 366,635.5C 368.335,632.335 370.835,629.335 373.5,626.5C 394.16,606.007 414.994,585.673 436,565.5C 456.238,588.403 475.738,611.903 494.5,636C 477.603,653.652 460.603,671.152 443.5,688.5 Z"/></g>
<g><path style="opacity:1" fill="#9bb3ef" d="M 742.5,560.5 C 754.049,592.226 758.382,624.892 755.5,658.5C 753.972,655.636 753.139,652.636 753,649.5C 752.667,652.5 752.333,655.5 752,658.5C 753.011,644.987 753.511,631.487 753.5,618C 753.056,616.238 752.556,616.405 752,618.5C 751.934,609.905 751.101,601.405 749.5,593C 749.167,592.5 748.833,592 748.5,591.5C 747.682,593.108 747.015,594.775 746.5,596.5C 747.274,597.711 748.107,597.711 749,596.5C 749.749,597.635 749.583,598.635 748.5,599.5C 745.31,597.663 743.644,594.83 743.5,591C 744.615,589.765 744.615,588.598 743.5,587.5C 743.977,586.522 744.643,585.689 745.5,585C 744.422,584.326 743.755,583.326 743.5,582C 744.27,579.19 744.937,576.357 745.5,573.5C 744.288,569.201 743.288,564.868 742.5,560.5 Z"/></g>
<g><path style="opacity:1" fill="#2957e1" d="M 602.5,553.5 C 620.489,568.824 638.156,584.491 655.5,600.5C 656.639,603.004 657.306,605.67 657.5,608.5C 658.833,608.5 660.167,608.5 661.5,608.5C 661.281,609.675 661.614,610.675 662.5,611.5C 664.332,612.248 665.999,613.248 667.5,614.5C 666.249,615.631 665.249,616.964 664.5,618.5C 664.833,619.167 665.167,619.833 665.5,620.5C 666.833,618.833 668.167,617.167 669.5,615.5C 671.921,617.934 674.588,619.934 677.5,621.5C 685.955,629.739 691.289,639.739 693.5,651.5C 693.666,659.507 693.5,667.507 693,675.5C 691.513,678.481 690.179,681.481 689,684.5C 688.667,683.833 688.333,683.167 688,682.5C 687.163,684.351 686.329,686.184 685.5,688C 686.576,689.726 686.743,691.559 686,693.5C 683.693,688.528 682.193,688.528 681.5,693.5C 682.5,693.5 683.5,693.5 684.5,693.5C 683.694,696.549 682.694,699.549 681.5,702.5C 679.883,705.784 677.55,708.451 674.5,710.5C 671.87,711.428 669.204,712.428 666.5,713.5C 661.923,718.316 656.256,721.149 649.5,722C 641.227,723.33 632.893,723.83 624.5,723.5C 620.838,723.277 617.505,722.277 614.5,720.5C 612.203,718.706 610.037,716.706 608,714.5C 607.517,713.552 607.351,712.552 607.5,711.5C 604.715,711.067 602.381,709.734 600.5,707.5C 600.167,707.833 599.833,708.167 599.5,708.5C 602.192,710.539 601.858,711.373 598.5,711C 596.561,710.092 595.561,708.592 595.5,706.5C 594.022,706.762 592.689,706.429 591.5,705.5C 589.408,703.395 587.075,701.728 584.5,700.5C 576.905,695.242 569.905,689.242 563.5,682.5C 561.911,679.241 559.911,676.241 557.5,673.5C 554.215,673.302 552.548,671.635 552.5,668.5C 556.541,668.426 557.208,667.093 554.5,664.5C 553.071,665.935 551.405,666.935 549.5,667.5C 548.833,667.167 548.167,666.833 547.5,666.5C 548.5,665.167 549.5,663.833 550.5,662.5C 547.868,660.045 545.035,657.712 542,655.5C 542.511,658.399 544.011,660.899 546.5,663C 545.5,663.667 544.5,663.667 543.5,663C 542.529,661.519 541.196,660.685 539.5,660.5C 532.195,654.53 525.195,648.197 518.5,641.5C 517.61,639.218 517.444,636.885 518,634.5C 519.183,633.269 520.349,633.269 521.5,634.5C 521.291,635.086 520.957,635.586 520.5,636C 522.218,636.346 523.885,636.846 525.5,637.5C 525.807,636.113 525.807,634.446 525.5,632.5C 524.5,632.5 523.5,632.5 522.5,632.5C 523.111,629.279 524.278,626.279 526,623.5C 527.11,621.963 528.61,621.297 530.5,621.5C 530.5,622.5 530.5,623.5 530.5,624.5C 531.873,624.657 533.207,624.49 534.5,624C 536.347,620.648 538.68,617.648 541.5,615C 540.065,615.311 538.732,615.145 537.5,614.5C 536.194,615.912 535.36,617.579 535,619.5C 533.989,620.337 532.822,620.67 531.5,620.5C 531.572,617.447 532.572,614.781 534.5,612.5C 535.708,611.766 537.041,611.433 538.5,611.5C 538.491,609.692 538.991,608.025 540,606.5C 542.676,603.794 544.842,600.794 546.5,597.5C 548.861,595.637 551.027,593.637 553,591.5C 554.995,593.329 556.828,595.329 558.5,597.5C 558.833,597 559.167,596.5 559.5,596C 558.833,595 558.167,594 557.5,593C 558.627,591.943 559.127,590.777 559,589.5C 557.644,590.38 556.144,590.714 554.5,590.5C 554.595,587.728 555.929,585.728 558.5,584.5C 559.598,588.322 561.932,589.322 565.5,587.5C 564.5,585.5 563.5,583.5 562.5,581.5C 563.815,579.684 565.315,578.017 567,576.5C 567.637,578.303 568.803,579.636 570.5,580.5C 569.339,582.224 569.505,583.89 571,585.5C 572.795,583.012 572.628,580.345 570.5,577.5C 571.647,575.415 570.98,573.915 568.5,573C 570.107,573.019 571.774,573.185 573.5,573.5C 573.244,571.088 574.244,569.421 576.5,568.5C 573.587,566.099 573.921,564.766 577.5,564.5C 577.343,563.127 577.51,561.793 578,560.5C 579.856,557.444 581.689,554.444 583.5,551.5C 583.5,550.833 583.833,550.5 584.5,550.5C 585.815,549.524 587.148,548.524 588.5,547.5C 589.425,548.641 590.259,548.641 591,547.5C 591.638,548.609 592.138,549.775 592.5,551C 591.67,552.465 591.504,553.965 592,555.5C 592.895,553.196 593.729,550.862 594.5,548.5C 597.202,550.22 599.868,551.887 602.5,553.5 Z"/></g>
<g><path style="opacity:1" fill="#2a57e6" d="M 605.5,590.5 C 611.501,591.789 617.501,591.789 623.5,590.5C 623.613,595.986 623.613,601.652 623.5,607.5C 616.833,607.5 610.167,607.5 603.5,607.5C 603.5,610.167 603.5,612.833 603.5,615.5C 601.833,615.5 600.167,615.5 598.5,615.5C 599.449,612.792 599.449,610.126 598.5,607.5C 597.21,609.792 595.543,611.792 593.5,613.5C 592.5,613.167 591.833,612.5 591.5,611.5C 592.246,610.264 592.579,608.93 592.5,607.5C 586.833,607.5 581.167,607.5 575.5,607.5C 575.5,612.833 575.5,618.167 575.5,623.5C 572.833,623.5 570.167,623.5 567.5,623.5C 567.5,615.5 567.5,607.5 567.5,599.5C 572.438,599.889 576.438,599.223 579.5,597.5C 579.5,596.167 579.5,594.833 579.5,593.5C 588.367,592.321 597.034,591.321 605.5,590.5 Z"/></g>
<g><path style="opacity:1" fill="#2e4ca8" d="M 546.5,597.5 C 544.842,600.794 542.676,603.794 540,606.5C 538.991,608.025 538.491,609.692 538.5,611.5C 537.041,611.433 535.708,611.766 534.5,612.5C 537.747,606.917 541.747,601.917 546.5,597.5 Z"/></g>
<g><path style="opacity:1" fill="#2e56c5" d="M 655.5,600.5 C 663.466,606.798 670.799,613.798 677.5,621.5C 674.588,619.934 671.921,617.934 669.5,615.5C 668.167,617.167 666.833,618.833 665.5,620.5C 665.167,619.833 664.833,619.167 664.5,618.5C 665.249,616.964 666.249,615.631 667.5,614.5C 665.999,613.248 664.332,612.248 662.5,611.5C 661.614,610.675 661.281,609.675 661.5,608.5C 660.167,608.5 658.833,608.5 657.5,608.5C 657.306,605.67 656.639,603.004 655.5,600.5 Z"/></g>
<g><path style="opacity:1" fill="#2c58cf" d="M 534.5,612.5 C 532.572,614.781 531.572,617.447 531.5,620.5C 532.822,620.67 533.989,620.337 535,619.5C 535.36,617.579 536.194,615.912 537.5,614.5C 538.732,615.145 540.065,615.311 541.5,615C 538.68,617.648 536.347,620.648 534.5,624C 533.207,624.49 531.873,624.657 530.5,624.5C 530.5,623.5 530.5,622.5 530.5,621.5C 528.61,621.297 527.11,621.963 526,623.5C 524.278,626.279 523.111,629.279 522.5,632.5C 523.5,632.5 524.5,632.5 525.5,632.5C 525.807,634.446 525.807,636.113 525.5,637.5C 523.885,636.846 522.218,636.346 520.5,636C 520.957,635.586 521.291,635.086 521.5,634.5C 520.349,633.269 519.183,633.269 518,634.5C 517.444,636.885 517.61,639.218 518.5,641.5C 517.508,641.672 516.842,641.338 516.5,640.5C 515.167,638.5 515.167,636.5 516.5,634.5C 521.554,626.392 527.554,619.059 534.5,612.5 Z"/></g>
<g><path style="opacity:1" fill="#98b0f5" d="M 516.5,634.5 C 515.167,636.5 515.167,638.5 516.5,640.5C 500.443,656.559 484.11,672.225 467.5,687.5C 466.153,688.171 464.986,688.171 464,687.5C 462.381,689.583 460.381,691.25 458,692.5C 457.667,691.833 457.333,691.167 457,690.5C 454.781,693.597 452.114,696.263 449,698.5C 447.062,693.374 445.229,693.374 443.5,698.5C 446.07,699.223 448.403,700.39 450.5,702C 448.731,703.064 447.064,704.231 445.5,705.5C 443.611,703.568 441.611,701.735 439.5,700C 440.448,699.517 441.448,699.351 442.5,699.5C 442.551,697.43 441.885,695.597 440.5,694C 441.741,692.269 442.741,690.436 443.5,688.5C 460.603,671.152 477.603,653.652 494.5,636C 475.738,611.903 456.238,588.403 436,565.5C 414.994,585.673 394.16,606.007 373.5,626.5C 371.97,625.933 370.47,625.267 369,624.5C 368.333,625.833 367.667,627.167 367,628.5C 360.022,624.845 359.688,625.845 366,631.5C 366.556,629.405 367.056,629.238 367.5,631C 364.233,633.286 362.566,636.453 362.5,640.5C 361.5,640.5 360.5,640.5 359.5,640.5C 358.959,648.158 358.459,655.825 358,663.5C 357.333,662.833 356.667,662.167 356,661.5C 355.785,657.281 356.285,653.114 357.5,649C 357.075,645.488 357.742,641.988 359.5,638.5C 359.032,636.866 358.032,635.7 356.5,635C 356.5,633.667 356.5,632.333 356.5,631C 351.672,629.248 351.505,627.414 356,625.5C 357.439,623.725 358.439,621.725 359,619.5C 365.79,614.711 371.957,609.211 377.5,603C 376.542,601.853 376.875,600.853 378.5,600C 379.938,599.781 381.271,599.281 382.5,598.5C 384.286,595.234 386.286,592.234 388.5,589.5C 403.661,573.506 419.327,558.006 435.5,543C 436.5,542.333 437.5,542.333 438.5,543C 464.022,573.688 489.356,604.521 514.5,635.5C 515.183,635.137 515.85,634.804 516.5,634.5 Z"/></g>
<g><path style="opacity:1" fill="#9ab1ef" d="M 388.5,589.5 C 386.286,592.234 384.286,595.234 382.5,598.5C 381.271,599.281 379.938,599.781 378.5,600C 376.875,600.853 376.542,601.853 377.5,603C 371.957,609.211 365.79,614.711 359,619.5C 358.439,621.725 357.439,623.725 356,625.5C 351.505,627.414 351.672,629.248 356.5,631C 356.5,632.333 356.5,633.667 356.5,635C 358.032,635.7 359.032,636.866 359.5,638.5C 357.742,641.988 357.075,645.488 357.5,649C 356.285,653.114 355.785,657.281 356,661.5C 356.667,662.167 357.333,662.833 358,663.5C 358.459,655.825 358.959,648.158 359.5,640.5C 360.5,640.5 361.5,640.5 362.5,640.5C 362.566,636.453 364.233,633.286 367.5,631C 367.056,629.238 366.556,629.405 366,631.5C 359.688,625.845 360.022,624.845 367,628.5C 367.667,627.167 368.333,625.833 369,624.5C 370.47,625.267 371.97,625.933 373.5,626.5C 370.835,629.335 368.335,632.335 366,635.5C 355.27,658.916 360.104,678.583 380.5,694.5C 378.345,694.628 376.345,694.128 374.5,693C 370.868,688.366 366.868,684.033 362.5,680C 362.957,679.586 363.291,679.086 363.5,678.5C 357.339,662.731 356.006,663.231 359.5,680C 357.654,682.024 356.321,684.357 355.5,687C 356.384,688.098 357.384,688.598 358.5,688.5C 355.833,689.5 355.833,690.5 358.5,691.5C 359.452,693.045 359.785,694.712 359.5,696.5C 351.522,687.776 346.689,677.443 345,665.5C 342.34,647.798 346.673,632.131 358,618.5C 367.786,608.208 377.953,598.542 388.5,589.5 Z"/></g>
<g><path style="opacity:1" fill="#97aff9" d="M 350.5,634.5 C 353.09,635.128 355.423,636.295 357.5,638C 354.55,639.878 353.883,642.378 355.5,645.5C 354.568,647.795 353.735,650.129 353,652.5C 352.667,651.5 352.333,650.5 352,649.5C 351.005,652.126 350.672,654.793 351,657.5C 351.667,656.833 352.333,656.167 353,655.5C 353.704,657.278 354.204,659.112 354.5,661C 353.859,667.526 353.026,674.026 352,680.5C 351.5,680 351,679.5 350.5,679C 350.654,675.713 350.987,672.379 351.5,669C 351.167,668.167 350.833,667.333 350.5,666.5C 349.702,668.078 349.202,669.744 349,671.5C 345.475,658.921 345.975,646.587 350.5,634.5 Z"/></g>
<g><path style="opacity:1" fill="#2e54c9" d="M 563.5,682.5 C 555.174,675.507 547.174,668.174 539.5,660.5C 541.196,660.685 542.529,661.519 543.5,663C 544.5,663.667 545.5,663.667 546.5,663C 544.011,660.899 542.511,658.399 542,655.5C 545.035,657.712 547.868,660.045 550.5,662.5C 549.5,663.833 548.5,665.167 547.5,666.5C 548.167,666.833 548.833,667.167 549.5,667.5C 551.405,666.935 553.071,665.935 554.5,664.5C 557.208,667.093 556.541,668.426 552.5,668.5C 552.548,671.635 554.215,673.302 557.5,673.5C 559.911,676.241 561.911,679.241 563.5,682.5 Z"/></g>
<g><path style="opacity:1" fill="#3759c9" d="M 693.5,651.5 C 697.851,670.429 693.851,687.429 681.5,702.5C 682.694,699.549 683.694,696.549 684.5,693.5C 683.5,693.5 682.5,693.5 681.5,693.5C 682.193,688.528 683.693,688.528 686,693.5C 686.743,691.559 686.576,689.726 685.5,688C 686.329,686.184 687.163,684.351 688,682.5C 688.333,683.167 688.667,683.833 689,684.5C 690.179,681.481 691.513,678.481 693,675.5C 693.5,667.507 693.666,659.507 693.5,651.5 Z"/></g>
<g><path style="opacity:1" fill="#99afed" d="M 467.5,687.5 C 457.66,700.511 445.327,710.345 430.5,717C 411.022,723.37 392.689,721.203 375.5,710.5C 381.104,712.417 386.937,714.083 393,715.5C 394.789,713.771 396.956,713.104 399.5,713.5C 399.64,715.124 398.973,716.29 397.5,717C 398.416,717.374 399.25,717.874 400,718.5C 405.064,718.372 410.23,718.205 415.5,718C 426.016,716.524 434.849,713.358 442,708.5C 442.483,707.552 442.649,706.552 442.5,705.5C 438.995,706.109 436.328,704.942 434.5,702C 435.5,701.667 436.5,701.333 437.5,701C 435.776,700.552 435.109,699.718 435.5,698.5C 429.603,701.813 423.27,703.48 416.5,703.5C 426.777,700.86 435.777,695.86 443.5,688.5C 442.741,690.436 441.741,692.269 440.5,694C 441.885,695.597 442.551,697.43 442.5,699.5C 441.448,699.351 440.448,699.517 439.5,700C 441.611,701.735 443.611,703.568 445.5,705.5C 447.064,704.231 448.731,703.064 450.5,702C 448.403,700.39 446.07,699.223 443.5,698.5C 445.229,693.374 447.062,693.374 449,698.5C 452.114,696.263 454.781,693.597 457,690.5C 457.333,691.167 457.667,691.833 458,692.5C 460.381,691.25 462.381,689.583 464,687.5C 464.986,688.171 466.153,688.171 467.5,687.5 Z"/></g>
<g><path style="opacity:1" fill="#96aff7" d="M 380.5,694.5 C 391.496,701.249 403.496,704.249 416.5,703.5C 423.27,703.48 429.603,701.813 435.5,698.5C 435.109,699.718 435.776,700.552 437.5,701C 436.5,701.333 435.5,701.667 434.5,702C 436.328,704.942 438.995,706.109 442.5,705.5C 442.649,706.552 442.483,707.552 442,708.5C 434.849,713.358 426.016,716.524 415.5,718C 410.23,718.205 405.064,718.372 400,718.5C 399.25,717.874 398.416,717.374 397.5,717C 398.973,716.29 399.64,715.124 399.5,713.5C 396.956,713.104 394.789,713.771 393,715.5C 386.937,714.083 381.104,712.417 375.5,710.5C 371.435,708.605 367.768,706.105 364.5,703C 362.21,701.223 360.543,699.056 359.5,696.5C 359.785,694.712 359.452,693.045 358.5,691.5C 355.833,690.5 355.833,689.5 358.5,688.5C 357.384,688.598 356.384,688.098 355.5,687C 356.321,684.357 357.654,682.024 359.5,680C 356.006,663.231 357.339,662.731 363.5,678.5C 363.291,679.086 362.957,679.586 362.5,680C 366.868,684.033 370.868,688.366 374.5,693C 376.345,694.128 378.345,694.628 380.5,694.5 Z"/></g>
<g><path style="opacity:1" fill="#9cafe7" d="M 753.5,675.5 C 752.464,693.303 748.464,710.303 741.5,726.5C 741.672,724.508 741.005,722.842 739.5,721.5C 741.243,719.679 742.743,717.679 744,715.5C 746.442,706.75 748.609,697.917 750.5,689C 750.265,688.127 749.931,687.293 749.5,686.5C 750.719,682.603 752.052,678.937 753.5,675.5 Z"/></g>
<g><path style="opacity:1" fill="#3255ca" d="M 584.5,700.5 C 587.075,701.728 589.408,703.395 591.5,705.5C 592.689,706.429 594.022,706.762 595.5,706.5C 595.561,708.592 596.561,710.092 598.5,711C 601.858,711.373 602.192,710.539 599.5,708.5C 599.833,708.167 600.167,707.833 600.5,707.5C 602.381,709.734 604.715,711.067 607.5,711.5C 607.351,712.552 607.517,713.552 608,714.5C 610.037,716.706 612.203,718.706 614.5,720.5C 602.817,716.327 592.817,709.661 584.5,700.5 Z"/></g>
<g><path style="opacity:1" fill="#4258b3" d="M 674.5,710.5 C 659.897,722.984 643.231,727.317 624.5,723.5C 632.893,723.83 641.227,723.33 649.5,722C 656.256,721.149 661.923,718.316 666.5,713.5C 669.204,712.428 671.87,711.428 674.5,710.5 Z"/></g>
<g><path style="opacity:1" fill="#9db0e6" d="M 711.5,783.5 C 688.735,817.205 659.401,843.539 623.5,862.5C 623.281,861.325 623.614,860.325 624.5,859.5C 627.618,858.441 630.618,857.108 633.5,855.5C 637.126,851.528 641.46,848.861 646.5,847.5C 646.5,846.5 646.5,845.5 646.5,844.5C 647.552,844.649 648.552,844.483 649.5,844C 654.642,840.358 659.642,836.525 664.5,832.5C 665.748,829.421 667.581,826.754 670,824.5C 670.419,825.672 671.085,826.672 672,827.5C 672.794,824.851 674.294,822.684 676.5,821C 681.986,816.073 687.486,811.24 693,806.5C 693.333,804.833 693.667,803.167 694,801.5C 694.414,801.957 694.914,802.291 695.5,802.5C 696.043,798.448 698.043,795.282 701.5,793C 700.262,793.077 699.262,792.911 698.5,792.5C 699.167,790.833 699.833,789.167 700.5,787.5C 701.365,786.417 702.365,786.251 703.5,787C 703.93,787.92 704.264,788.753 704.5,789.5C 705.251,788.624 705.751,787.624 706,786.5C 706.333,786.833 706.667,787.167 707,787.5C 707.483,786.552 707.649,785.552 707.5,784.5C 708.959,784.567 710.292,784.234 711.5,783.5 Z"/></g>
<g><path style="opacity:1" fill="#98ade7" d="M 591.5,848.5 C 588.373,851.57 584.706,853.904 580.5,855.5C 579.269,856.651 579.269,857.817 580.5,859C 579.975,859.692 579.308,860.192 578.5,860.5C 578.167,859.833 577.833,859.167 577.5,858.5C 575.958,859.747 574.458,859.747 573,858.5C 571.887,859.76 571.72,860.927 572.5,862C 570.159,861.443 567.826,861.61 565.5,862.5C 563.605,865.283 560.939,866.783 557.5,867C 558.167,867.333 558.833,867.667 559.5,868C 555.08,869.126 549.747,869.626 543.5,869.5C 559.988,863.669 575.988,856.669 591.5,848.5 Z"/></g>
<g><path style="opacity:1" fill="#9eafe4" d="M 455.5,877.5 C 450.137,876.679 444.803,876.679 439.5,877.5C 442.431,879.306 445.431,881.139 448.5,883C 451.099,883.769 453.599,883.602 456,882.5C 458.321,885.288 461.154,885.955 464.5,884.5C 469.182,886.893 474.182,888.393 479.5,889C 490.881,889.302 502.215,890.136 513.5,891.5C 518.47,890.771 523.47,890.271 528.5,890C 530.615,889.443 532.615,888.609 534.5,887.5C 536.273,888.087 538.106,888.42 540,888.5C 548.066,886.442 556.233,884.942 564.5,884C 570.536,881.32 576.869,879.82 583.5,879.5C 530.164,897.793 477.164,896.627 424.5,876C 416.847,872.508 409.513,868.508 402.5,864C 419.825,869.915 437.492,874.415 455.5,877.5 Z"/></g>
<g><path style="opacity:1" fill="#59617d" d="M 486.5,928.5 C 495.323,927.822 499.157,931.822 498,940.5C 495.367,945.732 491.201,947.565 485.5,946C 478.642,939.676 478.976,933.843 486.5,928.5 Z"/></g>
<g><path style="opacity:1" fill="#5a627d" d="M 362.5,928.5 C 371.817,927.984 375.65,932.317 374,941.5C 371.459,946.069 367.625,947.569 362.5,946C 354.686,940.211 354.686,934.378 362.5,928.5 Z"/></g>
<g><path style="opacity:1" fill="#272f40" d="M 599.5,926.5 C 596.038,927.482 592.371,927.815 588.5,927.5C 588.831,949.673 588.497,971.673 587.5,993.5C 587.5,971.167 587.5,948.833 587.5,926.5C 591.5,926.5 595.5,926.5 599.5,926.5 Z"/></g>
<g><path style="opacity:1" fill="#5a627e" d="M 506.5,928.5 C 516.157,927.658 519.99,931.991 518,941.5C 515.459,946.069 511.625,947.569 506.5,946C 502.079,942.975 500.579,938.808 502,933.5C 503.193,931.503 504.693,929.836 506.5,928.5 Z"/></g>
<g><path style="opacity:1" fill="#5b6481" d="M 770.5,1006.5 C 720.021,1006.46 669.355,1006.46 618.5,1006.5C 618.5,1002.83 618.5,999.167 618.5,995.5C 628.348,995.827 638.014,995.494 647.5,994.5C 648.998,986.832 647.165,979.832 642,973.5C 636.695,969.018 630.528,967.351 623.5,968.5C 623.5,963.833 623.5,959.167 623.5,954.5C 646.05,952.873 659.55,963.206 664,985.5C 664.953,988.432 665.453,991.432 665.5,994.5C 669.833,994.5 674.167,994.5 678.5,994.5C 678.5,981.167 678.5,967.833 678.5,954.5C 683.833,954.5 689.167,954.5 694.5,954.5C 694.5,967.833 694.5,981.167 694.5,994.5C 703.167,994.5 711.833,994.5 720.5,994.5C 720.5,981.167 720.5,967.833 720.5,954.5C 725.833,954.5 731.167,954.5 736.5,954.5C 736.334,958.514 736.501,962.514 737,966.5C 749.189,953.401 763.356,950.901 779.5,959C 783.928,962.092 786.761,966.259 788,971.5C 791.669,988.162 785.836,999.829 770.5,1006.5 Z"/></g>
<g><path style="opacity:1" fill="#343a51" d="M 271.5,1018.5 C 270.503,997.673 270.169,976.673 270.5,955.5C 265.833,955.5 261.167,955.5 256.5,955.5C 256.83,975.674 256.497,995.674 255.5,1015.5C 255.5,995.167 255.5,974.833 255.5,954.5C 260.833,954.5 266.167,954.5 271.5,954.5C 271.5,975.833 271.5,997.167 271.5,1018.5 Z"/></g>
<g><path style="opacity:1" fill="#232939" d="M 439.5,927.5 C 439.833,927.5 440.167,927.5 440.5,927.5C 440.5,954.167 440.5,980.833 440.5,1007.5C 435.5,1007.5 430.5,1007.5 425.5,1007.5C 425.5,1006.83 425.833,1006.5 426.5,1006.5C 430.833,1006.5 435.167,1006.5 439.5,1006.5C 439.5,980.167 439.5,953.833 439.5,927.5 Z"/></g>
<g><path style="opacity:1" fill="#f6f7f8" d="M 752.5,967.5 C 768.449,965.28 774.949,971.947 772,987.5C 770.332,991.165 767.499,993.332 763.5,994C 754.506,994.5 745.506,994.666 736.5,994.5C 736.485,982.178 741.819,973.178 752.5,967.5 Z"/></g>
<g><path style="opacity:1" fill="#5d6784" d="M 439.5,927.5 C 439.5,953.833 439.5,980.167 439.5,1006.5C 435.167,1006.5 430.833,1006.5 426.5,1006.5C 426.5,980.167 426.5,953.833 426.5,927.5C 430.833,927.5 435.167,927.5 439.5,927.5 Z"/></g>
<g><path style="opacity:1" fill="#585c72" d="M 440.5,927.5 C 440.167,927.5 439.833,927.5 439.5,927.5C 435.167,927.5 430.833,927.5 426.5,927.5C 426.5,953.833 426.5,980.167 426.5,1006.5C 425.833,1006.5 425.5,1006.83 425.5,1007.5C 424.502,980.672 424.169,953.672 424.5,926.5C 430.026,926.179 435.36,926.512 440.5,927.5 Z"/></g>
<g><path style="opacity:1" fill="#5b6482" d="M 599.5,926.5 C 600.822,926.33 601.989,926.663 603,927.5C 603.499,932.155 603.666,936.821 603.5,941.5C 602.503,962.994 602.169,984.66 602.5,1006.5C 571.995,1006.17 541.662,1006.5 511.5,1007.5C 501.725,1008.48 492.392,1006.98 483.5,1003C 473.603,995.657 469.769,985.824 472,973.5C 476.243,960.947 485.077,954.613 498.5,954.5C 506.984,955.493 515.651,955.826 524.5,955.5C 524.171,968.344 524.505,981.011 525.5,993.5C 525.5,993.833 525.5,994.167 525.5,994.5C 533.316,995.492 541.316,995.826 549.5,995.5C 549.5,982.167 549.5,968.833 549.5,955.5C 553.833,955.5 558.167,955.5 562.5,955.5C 562.171,968.344 562.505,981.011 563.5,993.5C 571.5,994.833 579.5,994.833 587.5,993.5C 588.497,971.673 588.831,949.673 588.5,927.5C 592.371,927.815 596.038,927.482 599.5,926.5 Z"/></g>
<g><path style="opacity:1" fill="#c5ccd8" d="M 563.5,954.5 C 564.249,955.531 564.915,956.698 565.5,958C 564.512,969.753 564.179,981.586 564.5,993.5C 572.167,993.5 579.833,993.5 587.5,993.5C 579.5,994.833 571.5,994.833 563.5,993.5C 563.5,980.5 563.5,967.5 563.5,954.5 Z"/></g>
<g><path style="opacity:1" fill="#cccfde" d="M 525.5,954.5 C 526.495,967.323 526.829,980.323 526.5,993.5C 533.5,993.5 540.5,993.5 547.5,993.5C 547.171,980.323 547.505,967.323 548.5,954.5C 548.5,967.833 548.5,981.167 548.5,994.5C 540.833,994.5 533.167,994.5 525.5,994.5C 525.5,994.167 525.5,993.833 525.5,993.5C 525.5,980.5 525.5,967.5 525.5,954.5 Z"/></g>
<g><path style="opacity:1" fill="#32384b" d="M 548.5,954.5 C 553.5,954.5 558.5,954.5 563.5,954.5C 563.5,967.5 563.5,980.5 563.5,993.5C 562.505,981.011 562.171,968.344 562.5,955.5C 558.167,955.5 553.833,955.5 549.5,955.5C 549.5,968.833 549.5,982.167 549.5,995.5C 541.316,995.826 533.316,995.492 525.5,994.5C 533.167,994.5 540.833,994.5 548.5,994.5C 548.5,981.167 548.5,967.833 548.5,954.5 Z"/></g>
<g><path style="opacity:1" fill="#f6f7f8" d="M 497.5,966.5 C 501.833,966.5 506.167,966.5 510.5,966.5C 510.5,975.833 510.5,985.167 510.5,994.5C 491.009,996.198 484.676,988.031 491.5,970C 493.727,969.059 495.727,967.892 497.5,966.5 Z"/></g>
<g><path style="opacity:1" fill="#2f3548" d="M 498.5,954.5 C 507.5,954.5 516.5,954.5 525.5,954.5C 525.5,967.5 525.5,980.5 525.5,993.5C 524.505,981.011 524.171,968.344 524.5,955.5C 515.651,955.826 506.984,955.493 498.5,954.5 Z"/></g>
<g><path style="opacity:1" fill="#33384d" d="M 394.5,926.5 C 399.5,926.5 404.5,926.5 409.5,926.5C 409.5,953.5 409.5,980.5 409.5,1007.5C 385.5,1007.5 361.5,1007.5 337.5,1007.5C 360.994,1006.5 384.661,1006.17 408.5,1006.5C 408.5,980.167 408.5,953.833 408.5,927.5C 403.637,927.819 398.97,927.486 394.5,926.5 Z"/></g>
<g><path style="opacity:1" fill="#373c53" d="M 603.5,941.5 C 603.5,963.5 603.5,985.5 603.5,1007.5C 572.833,1007.5 542.167,1007.5 511.5,1007.5C 541.662,1006.5 571.995,1006.17 602.5,1006.5C 602.169,984.66 602.503,962.994 603.5,941.5 Z"/></g>
<g><path style="opacity:1" fill="#393e54" d="M 647.5,994.5 C 638.014,995.494 628.348,995.827 618.5,995.5C 618.5,999.167 618.5,1002.83 618.5,1006.5C 669.355,1006.46 720.021,1006.46 770.5,1006.5C 719.186,1007.48 667.852,1007.81 616.5,1007.5C 616.5,1003.17 616.5,998.833 616.5,994.5C 626.833,994.5 637.167,994.5 647.5,994.5 Z"/></g>
<g><path style="opacity:1" fill="#5c6481" d="M 271.5,1018.5 C 267.328,1034.09 257.328,1039.59 241.5,1035C 241,1034.5 240.5,1034 240,1033.5C 239.501,1029.85 239.335,1026.18 239.5,1022.5C 246.924,1024.29 252.258,1021.95 255.5,1015.5C 256.497,995.674 256.83,975.674 256.5,955.5C 261.167,955.5 265.833,955.5 270.5,955.5C 270.169,976.673 270.503,997.673 271.5,1018.5 Z"/></g>
<g><path style="opacity:1" fill="#59607a" d="M 671.5,1014.5 C 682.186,1013.54 686.02,1018.21 683,1028.5C 679.95,1032.13 676.117,1033.3 671.5,1032C 666.845,1029.1 665.345,1024.94 667,1019.5C 668.059,1017.34 669.559,1015.67 671.5,1014.5 Z"/></g>
<g><path style="opacity:1" fill="#59607b" d="M 539.5,1014.5 C 552.637,1014.13 555.971,1019.63 549.5,1031C 538.848,1034.35 534.348,1030.51 536,1019.5C 536.997,1017.68 538.164,1016.01 539.5,1014.5 Z"/></g>
<g><path style="opacity:1" fill="#5b6380" d="M 394.5,926.5 C 398.97,927.486 403.637,927.819 408.5,927.5C 408.5,953.833 408.5,980.167 408.5,1006.5C 384.661,1006.17 360.994,1006.5 337.5,1007.5C 337.699,1027.44 327.699,1037.11 307.5,1036.5C 300.117,1036.79 293.284,1035.13 287,1031.5C 286.173,1027.46 286.34,1023.46 287.5,1019.5C 295.768,1023.29 304.434,1024.46 313.5,1023C 319.965,1019.91 322.631,1014.74 321.5,1007.5C 312.055,1008.44 303.055,1006.94 294.5,1003C 288.365,999.242 284.865,993.742 284,986.5C 281.78,967.266 290.28,956.6 309.5,954.5C 318.318,955.493 327.318,955.827 336.5,955.5C 336.171,968.011 336.505,980.345 337.5,992.5C 343.75,994.459 350.416,995.126 357.5,994.5C 357.5,993.5 357.5,992.5 357.5,991.5C 358.495,979.678 358.828,967.678 358.5,955.5C 363.167,955.5 367.833,955.5 372.5,955.5C 372.171,968.344 372.505,981.011 373.5,993.5C 379.979,994.491 386.646,994.824 393.5,994.5C 393.169,971.661 393.503,948.994 394.5,926.5 Z"/></g>
<g><path style="opacity:1" fill="#2b3041" d="M 373.5,993.5 C 372.505,981.011 372.171,968.344 372.5,955.5C 367.833,955.5 363.167,955.5 358.5,955.5C 358.828,967.678 358.495,979.678 357.5,991.5C 357.5,979.167 357.5,966.833 357.5,954.5C 362.833,954.5 368.167,954.5 373.5,954.5C 373.5,967.5 373.5,980.5 373.5,993.5 Z"/></g>
<g><path style="opacity:1" fill="#f5f6f7" d="M 309.5,966.5 C 313.5,966.5 317.5,966.5 321.5,966.5C 321.483,975.849 321.817,985.182 322.5,994.5C 316.268,995.061 310.268,994.228 304.5,992C 297.902,984.303 297.902,976.636 304.5,969C 306.315,968.243 307.981,967.41 309.5,966.5 Z"/></g>
<g><path style="opacity:1" fill="#313649" d="M 309.5,954.5 C 318.833,954.5 328.167,954.5 337.5,954.5C 337.5,967.167 337.5,979.833 337.5,992.5C 336.505,980.345 336.171,968.011 336.5,955.5C 327.318,955.827 318.318,955.493 309.5,954.5 Z"/></g>
<g><path style="opacity:1" fill="#59607b" d="M 691.5,1014.5 C 701.659,1013.16 705.826,1017.49 704,1027.5C 701.103,1032.15 696.937,1033.65 691.5,1032C 686.291,1026.24 686.291,1020.41 691.5,1014.5 Z"/></g>
<g><path style="opacity:1" fill="#57607c" d="M 560.5,1014.5 C 572.994,1014.16 576.327,1019.49 570.5,1030.5C 559.944,1034.45 555.444,1030.78 557,1019.5C 557.997,1017.68 559.164,1016.01 560.5,1014.5 Z"/></g>
<g><path style="opacity:1" fill="#363f57" d="M 490.5,1075.5 C 493.977,1074.68 497.644,1074.18 501.5,1074C 497.975,1073.82 494.641,1073.32 491.5,1072.5C 495.936,1072.79 500.27,1072.29 504.5,1071C 508.833,1061.81 505.833,1057.65 495.5,1058.5C 493.052,1057.53 490.385,1057.19 487.5,1057.5C 487.333,1068.17 487.5,1078.84 488,1089.5C 488.333,1086.17 488.667,1082.83 489,1079.5C 489.499,1083.15 489.665,1086.82 489.5,1090.5C 488.167,1090.5 486.833,1090.5 485.5,1090.5C 485.5,1078.83 485.5,1067.17 485.5,1055.5C 491.509,1055.33 497.509,1055.5 503.5,1056C 509.688,1057.87 512.188,1062.03 511,1068.5C 509.833,1071.67 507.667,1073.83 504.5,1075C 499.845,1075.5 495.179,1075.67 490.5,1075.5 Z"/></g>
<g><path style="opacity:1" fill="#354056" d="M 714.5,1055.5 C 718.514,1055.33 722.514,1055.5 726.5,1056C 729.209,1056.54 731.209,1058.04 732.5,1060.5C 730.311,1064.52 728.311,1064.36 726.5,1060C 715.996,1057.43 709.996,1061.6 708.5,1072.5C 708.497,1080.88 712.497,1085.88 720.5,1087.5C 724.947,1086.67 728.947,1085.01 732.5,1082.5C 731.139,1088.45 727.306,1091.12 721,1090.5C 712.633,1090.64 707.3,1086.64 705,1078.5C 702.685,1068.47 705.851,1060.81 714.5,1055.5 Z"/></g>
<g><path style="opacity:1" fill="#384158" d="M 346.5,1080.5 C 347.167,1072.66 347.833,1064.66 348.5,1056.5C 349.833,1067.5 349.833,1078.5 348.5,1089.5C 347.571,1088.45 346.905,1088.45 346.5,1089.5C 339.845,1080.87 333.178,1072.21 326.5,1063.5C 326.978,1060.72 325.978,1058.72 323.5,1057.5C 322.334,1068.15 322.168,1078.82 323,1089.5C 323.333,1080.5 323.667,1071.5 324,1062.5C 324.5,1070.83 324.666,1079.16 324.5,1087.5C 324.5,1088.5 324.5,1089.5 324.5,1090.5C 323.167,1090.5 321.833,1090.5 320.5,1090.5C 320.5,1078.83 320.5,1067.17 320.5,1055.5C 322.199,1055.34 323.866,1055.51 325.5,1056C 331.976,1064.64 338.643,1073.14 345.5,1081.5C 346.107,1081.38 346.44,1081.04 346.5,1080.5 Z"/></g>
<g><path style="opacity:1" fill="#283149" d="M 614.5,1058.5 C 612.863,1057.78 611.197,1057.62 609.5,1058C 614.826,1060.42 616.159,1063.92 613.5,1068.5C 613.93,1065.14 612.93,1062.3 610.5,1060C 605.964,1058.62 601.297,1058.12 596.5,1058.5C 595.85,1058.2 595.183,1057.86 594.5,1057.5C 593.167,1068.17 593.167,1078.83 594.5,1089.5C 595.491,1085.55 595.824,1081.55 595.5,1077.5C 595.5,1076.83 595.833,1076.5 596.5,1076.5C 596.5,1081.17 596.5,1085.83 596.5,1090.5C 595.167,1090.5 593.833,1090.5 592.5,1090.5C 592.5,1078.83 592.5,1067.17 592.5,1055.5C 598.509,1055.33 604.509,1055.5 610.5,1056C 612.32,1056.2 613.653,1057.03 614.5,1058.5 Z"/></g>
<g><path style="opacity:1" fill="#f3f6f7" d="M 495.5,1058.5 C 505.833,1057.65 508.833,1061.81 504.5,1071C 500.27,1072.29 495.936,1072.79 491.5,1072.5C 490.514,1068.03 490.181,1063.36 490.5,1058.5C 492.167,1058.5 493.833,1058.5 495.5,1058.5 Z"/></g>
<g><path style="opacity:1" fill="#f4f6f6" d="M 409.5,1058.5 C 416.974,1057.9 422.307,1060.9 425.5,1067.5C 426.785,1074.81 424.785,1080.98 419.5,1086C 414.196,1088.27 409.196,1087.77 404.5,1084.5C 401.614,1078.9 400.78,1072.9 402,1066.5C 404.028,1063.31 406.528,1060.64 409.5,1058.5 Z"/></g>
<g><path style="opacity:1" fill="#2b354e" d="M 409.5,1055.5 C 422.557,1054.18 429.223,1060.01 429.5,1073C 429.618,1076.69 428.951,1080.19 427.5,1083.5C 426.957,1083.44 426.624,1083.11 426.5,1082.5C 429.097,1076.48 429.097,1070.48 426.5,1064.5C 425.614,1065.32 425.281,1066.32 425.5,1067.5C 422.307,1060.9 416.974,1057.9 409.5,1058.5C 411.378,1057.62 414.045,1057.12 417.5,1057C 414.635,1056.82 411.969,1056.32 409.5,1055.5 Z"/></g>
<g><path style="opacity:1" fill="#edf1f4" d="M 596.5,1058.5 C 601.297,1058.12 605.964,1058.62 610.5,1060C 612.93,1062.3 613.93,1065.14 613.5,1068.5C 611.779,1070.69 609.445,1071.86 606.5,1072C 603.183,1072.5 599.85,1072.67 596.5,1072.5C 596.5,1068.17 596.5,1063.83 596.5,1059.5C 596.5,1059.17 596.5,1058.83 596.5,1058.5 Z"/></g>
<g><path style="opacity:1" fill="#101c34" d="M 280.5,1055.5 C 279.856,1066.88 280.523,1077.88 282.5,1088.5C 286.846,1088.33 291.179,1088.5 295.5,1089C 292.635,1089.18 289.969,1089.68 287.5,1090.5C 284.833,1090.5 282.167,1090.5 279.5,1090.5C 279.172,1078.65 279.505,1066.99 280.5,1055.5 Z"/></g>
<g><path style="opacity:1" fill="#1d263b" d="M 346.5,1089.5 C 346.905,1088.45 347.571,1088.45 348.5,1089.5C 349.833,1078.5 349.833,1067.5 348.5,1056.5C 347.833,1064.66 347.167,1072.66 346.5,1080.5C 346.5,1072.17 346.5,1063.83 346.5,1055.5C 347.833,1055.5 349.167,1055.5 350.5,1055.5C 350.5,1067.17 350.5,1078.83 350.5,1090.5C 348.901,1090.77 347.568,1090.43 346.5,1089.5 Z"/></g>
<g><path style="opacity:1" fill="#3b4665" d="M 628.5,1055.5 C 628.393,1057.38 628.893,1057.71 630,1056.5C 630.167,1062 630.333,1067.5 630.5,1073C 630.454,1079.08 629.787,1084.91 628.5,1090.5C 627.167,1078.83 627.167,1067.17 628.5,1055.5 Z"/></g>
<g><path style="opacity:1" fill="#212d43" d="M 520.5,1055.5 C 522.442,1060.06 523.108,1065.06 522.5,1070.5C 528.833,1070.5 535.167,1070.5 541.5,1070.5C 535.013,1071.65 528.346,1071.82 521.5,1071C 520.529,1065.93 520.195,1060.76 520.5,1055.5 Z"/></g>
<g><path style="opacity:1" fill="#3a435a" d="M 614.5,1058.5 C 618.076,1060.82 619.243,1064.16 618,1068.5C 616.741,1072.09 614.241,1074.26 610.5,1075C 613.441,1080.27 616.774,1085.27 620.5,1090C 618.833,1090.67 617.167,1090.67 615.5,1090C 612.376,1085.59 609.376,1081.09 606.5,1076.5C 603.02,1075.19 599.687,1075.19 596.5,1076.5C 595.833,1076.5 595.5,1076.83 595.5,1077.5C 595.625,1071.79 595.291,1065.96 594.5,1060C 595.094,1059.54 595.761,1059.37 596.5,1059.5C 596.5,1063.83 596.5,1068.17 596.5,1072.5C 599.85,1072.67 603.183,1072.5 606.5,1072C 609.445,1071.86 611.779,1070.69 613.5,1068.5C 616.159,1063.92 614.826,1060.42 609.5,1058C 611.197,1057.62 612.863,1057.78 614.5,1058.5 Z"/></g>
<g><path style="opacity:1" fill="#3c465d" d="M 657.5,1088.5 C 658.33,1080.01 658.83,1071.34 659,1062.5C 659.333,1071.17 659.667,1079.83 660,1088.5C 660.667,1078.17 660.667,1067.83 660,1057.5C 659.333,1056.17 658.667,1056.17 658,1057.5C 656.872,1059.35 656.372,1061.35 656.5,1063.5C 652.774,1072.5 648.941,1081.5 645,1090.5C 640.906,1082.9 637.573,1074.9 635,1066.5C 634.303,1064.42 633.136,1062.75 631.5,1061.5C 631.5,1060.17 631.5,1058.83 631.5,1057.5C 632.5,1057.5 633.5,1057.5 634.5,1057.5C 638.656,1065.11 642.156,1073.11 645,1081.5C 649.133,1072.92 652.967,1064.26 656.5,1055.5C 658.5,1055.5 660.5,1055.5 662.5,1055.5C 662.5,1067.17 662.5,1078.83 662.5,1090.5C 660.219,1090.92 658.552,1090.26 657.5,1088.5 Z"/></g>
<g><path style="opacity:1" fill="#5c657e" d="M 657.5,1088.5 C 657.826,1079.98 657.493,1071.65 656.5,1063.5C 656.372,1061.35 656.872,1059.35 658,1057.5C 658.667,1056.17 659.333,1056.17 660,1057.5C 660.667,1067.83 660.667,1078.17 660,1088.5C 659.667,1079.83 659.333,1071.17 659,1062.5C 658.83,1071.34 658.33,1080.01 657.5,1088.5 Z"/></g>
<g><path style="opacity:1" fill="#313d55" d="M 737.5,1055.5 C 739.144,1055.29 740.644,1055.62 742,1056.5C 745.167,1061.5 748.333,1066.5 751.5,1071.5C 755.62,1067.19 758.787,1062.19 761,1056.5C 762.726,1055.42 764.559,1055.26 766.5,1056C 762.208,1062.75 758.041,1069.58 754,1076.5C 753.501,1081.15 753.334,1085.82 753.5,1090.5C 752.167,1090.5 750.833,1090.5 749.5,1090.5C 749.666,1085.82 749.499,1081.15 749,1076.5C 744.634,1069.77 740.801,1062.77 737.5,1055.5 Z"/></g>
<g><path style="opacity:1" fill="#4d5979" d="M 280.5,1055.5 C 281.167,1055.5 281.833,1055.5 282.5,1055.5C 282.5,1066.5 282.5,1077.5 282.5,1088.5C 280.523,1077.88 279.856,1066.88 280.5,1055.5 Z"/></g>
<g><path style="opacity:1" fill="#525e7c" d="M 427.5,1083.5 C 427.167,1084.5 426.5,1085.17 425.5,1085.5C 424.867,1085.12 424.2,1084.79 423.5,1084.5C 426.539,1078.99 427.205,1073.32 425.5,1067.5C 425.281,1066.32 425.614,1065.32 426.5,1064.5C 429.097,1070.48 429.097,1076.48 426.5,1082.5C 426.624,1083.11 426.957,1083.44 427.5,1083.5 Z"/></g>
<g><path style="opacity:1" fill="#48526c" d="M 495.5,1058.5 C 493.833,1058.5 492.167,1058.5 490.5,1058.5C 490.181,1063.36 490.514,1068.03 491.5,1072.5C 494.641,1073.32 497.975,1073.82 501.5,1074C 497.644,1074.18 493.977,1074.68 490.5,1075.5C 490.821,1080.69 490.487,1085.69 489.5,1090.5C 489.665,1086.82 489.499,1083.15 489,1079.5C 488.667,1082.83 488.333,1086.17 488,1089.5C 487.5,1078.84 487.333,1068.17 487.5,1057.5C 490.385,1057.19 493.052,1057.53 495.5,1058.5 Z"/></g>
<g><path style="opacity:1" fill="#131c37" d="M 519.5,1055.5 C 519.333,1066.84 519.5,1078.17 520,1089.5C 521.118,1084.16 521.952,1078.83 522.5,1073.5C 522.5,1079.17 522.5,1084.83 522.5,1090.5C 521.167,1090.5 519.833,1090.5 518.5,1090.5C 518.172,1078.65 518.505,1066.99 519.5,1055.5 Z"/></g>
<g><path style="opacity:1" fill="#535f75" d="M 596.5,1058.5 C 596.5,1058.83 596.5,1059.17 596.5,1059.5C 595.761,1059.37 595.094,1059.54 594.5,1060C 595.291,1065.96 595.625,1071.79 595.5,1077.5C 595.824,1081.55 595.491,1085.55 594.5,1089.5C 593.167,1078.83 593.167,1068.17 594.5,1057.5C 595.183,1057.86 595.85,1058.2 596.5,1058.5 Z"/></g>
<g><path style="opacity:1" fill="#727b98" d="M 326.5,1063.5 C 325.833,1071.5 325.167,1079.5 324.5,1087.5C 324.666,1079.16 324.5,1070.83 324,1062.5C 323.667,1071.5 323.333,1080.5 323,1089.5C 322.168,1078.82 322.334,1068.15 323.5,1057.5C 325.978,1058.72 326.978,1060.72 326.5,1063.5 Z"/></g>
<g><path style="opacity:1" fill="#0c1835" d="M 628.5,1055.5 C 631.082,1055.03 633.082,1055.69 634.5,1057.5C 633.5,1057.5 632.5,1057.5 631.5,1057.5C 631.5,1058.83 631.5,1060.17 631.5,1061.5C 631.5,1071.17 631.5,1080.83 631.5,1090.5C 630.5,1090.5 629.5,1090.5 628.5,1090.5C 629.787,1084.91 630.454,1079.08 630.5,1073C 630.333,1067.5 630.167,1062 630,1056.5C 628.893,1057.71 628.393,1057.38 628.5,1055.5 Z"/></g>
<g><path style="opacity:1" fill="#363f59" d="M 253.5,1055.5 C 255.467,1055.26 257.301,1055.59 259,1056.5C 263.5,1067.5 268,1078.5 272.5,1089.5C 270.994,1090.75 269.494,1090.75 268,1089.5C 266.901,1086.14 265.401,1082.97 263.5,1080C 258.177,1079.5 252.844,1079.33 247.5,1079.5C 246.64,1082.91 245.474,1086.24 244,1089.5C 242.274,1090.58 240.441,1090.74 238.5,1090C 243.919,1078.66 248.919,1067.16 253.5,1055.5 Z"/></g>
<g><path style="opacity:1" fill="#eef2f5" d="M 258.5,1064.5 C 259.044,1068.47 260.377,1072.13 262.5,1075.5C 258.317,1076.81 253.984,1076.81 249.5,1075.5C 251.375,1070.38 253.541,1065.38 256,1060.5C 256.2,1062.32 257.034,1063.65 258.5,1064.5 Z"/></g>
<g><path style="opacity:1" fill="#1a203c" d="M 258.5,1064.5 C 260.147,1067.73 261.814,1071.06 263.5,1074.5C 263.376,1075.11 263.043,1075.44 262.5,1075.5C 260.377,1072.13 259.044,1068.47 258.5,1064.5 Z"/></g>
<g><path style="opacity:1" fill="#3c445e" d="M 301.5,1074.5 C 307.167,1074.5 312.833,1074.5 318.5,1074.5C 318.5,1075.83 318.5,1077.17 318.5,1078.5C 312.833,1078.5 307.167,1078.5 301.5,1078.5C 301.5,1077.17 301.5,1075.83 301.5,1074.5 Z"/></g>
<g><path style="opacity:1" fill="#3c465b" d="M 694.5,1072.5 C 693.903,1072.74 693.57,1073.24 693.5,1074C 695.088,1078.68 697.088,1083.18 699.5,1087.5C 698.575,1088.56 697.575,1088.56 696.5,1087.5C 695.086,1085.13 693.752,1082.63 692.5,1080C 687.167,1079.33 681.833,1079.33 676.5,1080C 675.038,1083.09 673.704,1086.26 672.5,1089.5C 670.833,1090.83 669.167,1090.83 667.5,1089.5C 672.089,1079.58 676.589,1069.58 681,1059.5C 681.49,1058.21 681.657,1056.87 681.5,1055.5C 684.044,1055.1 686.211,1055.77 688,1057.5C 689.631,1062.76 691.798,1067.76 694.5,1072.5 Z"/></g>
<g><path style="opacity:1" fill="#ebeff4" d="M 684.5,1060.5 C 686.511,1065.53 688.845,1070.53 691.5,1075.5C 686.869,1076.66 682.202,1076.83 677.5,1076C 679.976,1070.88 682.31,1065.72 684.5,1060.5 Z"/></g>
<g><path style="opacity:1" fill="#273042" d="M 694.5,1072.5 C 696.632,1078.22 698.965,1083.89 701.5,1089.5C 699.955,1090.45 698.288,1090.79 696.5,1090.5C 696.5,1089.5 696.5,1088.5 696.5,1087.5C 697.575,1088.56 698.575,1088.56 699.5,1087.5C 697.088,1083.18 695.088,1078.68 693.5,1074C 693.57,1073.24 693.903,1072.74 694.5,1072.5 Z"/></g>
<g><path style="opacity:1" fill="#151d30" d="M 544.5,1055.5 C 543.21,1066.8 543.21,1078.14 544.5,1089.5C 545.499,1078.19 545.832,1066.85 545.5,1055.5C 546.495,1066.99 546.828,1078.65 546.5,1090.5C 545.167,1090.5 543.833,1090.5 542.5,1090.5C 542.5,1084.83 542.5,1079.17 542.5,1073.5C 542.5,1072.5 542.5,1071.5 542.5,1070.5C 541.892,1065.06 542.558,1060.06 544.5,1055.5 Z"/></g>
<g><path style="opacity:1" fill="#4f5f79" d="M 544.5,1055.5 C 544.833,1055.5 545.167,1055.5 545.5,1055.5C 545.832,1066.85 545.499,1078.19 544.5,1089.5C 543.21,1078.14 543.21,1066.8 544.5,1055.5 Z"/></g>
<g><path style="opacity:1" fill="#4c5a73" d="M 364.5,1063.5 C 361.097,1069.1 360.597,1075.1 363,1081.5C 363.785,1083.29 364.951,1084.79 366.5,1086C 363.506,1085.64 361.673,1083.81 361,1080.5C 360.205,1076.69 359.371,1073.02 358.5,1069.5C 358.328,1068.51 358.662,1067.84 359.5,1067.5C 360.881,1065.25 362.714,1062.59 365,1059.5C 365.195,1060.82 365.028,1062.15 364.5,1063.5 Z"/></g>
<g><path style="opacity:1" fill="#47526f" d="M 409.5,1055.5 C 411.969,1056.32 414.635,1056.82 417.5,1057C 414.045,1057.12 411.378,1057.62 409.5,1058.5C 406.528,1060.64 404.028,1063.31 402,1066.5C 400.78,1072.9 401.614,1078.9 404.5,1084.5C 404.631,1085.24 404.464,1085.91 404,1086.5C 401.597,1084.69 399.93,1082.36 399,1079.5C 398.324,1074.13 398.491,1068.8 399.5,1063.5C 401.347,1058.99 404.68,1056.32 409.5,1055.5 Z"/></g>
<g><path style="opacity:1" fill="#424e6b" d="M 519.5,1055.5 C 519.833,1055.5 520.167,1055.5 520.5,1055.5C 520.195,1060.76 520.529,1065.93 521.5,1071C 528.346,1071.82 535.013,1071.65 541.5,1070.5C 541.833,1070.5 542.167,1070.5 542.5,1070.5C 542.5,1071.5 542.5,1072.5 542.5,1073.5C 535.833,1073.5 529.167,1073.5 522.5,1073.5C 521.952,1078.83 521.118,1084.16 520,1089.5C 519.5,1078.17 519.333,1066.84 519.5,1055.5 Z"/></g>
<g><path style="opacity:1" fill="#3a445d" d="M 436.5,1055.5 C 442.842,1055.33 449.175,1055.5 455.5,1056C 463.217,1058.27 465.383,1063.1 462,1070.5C 460.104,1072.53 457.937,1074.2 455.5,1075.5C 458.638,1080.47 461.972,1085.3 465.5,1090C 463.833,1090.67 462.167,1090.67 460.5,1090C 457.5,1085.67 454.5,1081.33 451.5,1077C 448.312,1075.68 444.978,1075.18 441.5,1075.5C 441.5,1080.5 441.5,1085.5 441.5,1090.5C 439.833,1090.5 438.167,1090.5 436.5,1090.5C 436.5,1078.83 436.5,1067.17 436.5,1055.5 Z"/></g>
<g><path style="opacity:1" fill="#f3f6f7" d="M 441.5,1058.5 C 446.599,1058.17 451.599,1058.67 456.5,1060C 458.993,1063.31 459.159,1066.81 457,1070.5C 456.25,1071.13 455.416,1071.63 454.5,1072C 450.179,1072.5 445.846,1072.67 441.5,1072.5C 441.5,1067.83 441.5,1063.17 441.5,1058.5 Z"/></g>
<g><path style="opacity:1" fill="#3b465e" d="M 566.5,1055.5 C 568.5,1055.5 570.5,1055.5 572.5,1055.5C 577.121,1067.07 581.455,1078.74 585.5,1090.5C 583.856,1090.71 582.356,1090.38 581,1089.5C 580.261,1085.94 578.761,1082.77 576.5,1080C 571.5,1079.33 566.5,1079.33 561.5,1080C 559.618,1082.98 558.118,1086.14 557,1089.5C 555.274,1090.58 553.441,1090.74 551.5,1090C 557.177,1078.8 562.177,1067.3 566.5,1055.5 Z"/></g>
<g><path style="opacity:1" fill="#f1f3f5" d="M 568.5,1060.5 C 571.384,1065.11 573.717,1070.11 575.5,1075.5C 571.167,1076.83 566.833,1076.83 562.5,1075.5C 564.892,1070.66 566.892,1065.66 568.5,1060.5 Z"/></g>
<g><path style="opacity:1" fill="#858b93" d="M 283.5,1086.5 C 289.271,1085.89 294.604,1086.55 299.5,1088.5C 294.065,1087.88 288.732,1087.21 283.5,1086.5 Z"/></g>
<g><path style="opacity:1" fill="#2e3b4f" d="M 282.5,1055.5 C 283.494,1065.65 283.828,1075.99 283.5,1086.5C 288.732,1087.21 294.065,1087.88 299.5,1088.5C 295.971,1090.42 291.971,1091.09 287.5,1090.5C 289.969,1089.68 292.635,1089.18 295.5,1089C 291.179,1088.5 286.846,1088.33 282.5,1088.5C 282.5,1077.5 282.5,1066.5 282.5,1055.5 Z"/></g>
<g><path style="opacity:1" fill="#303c53" d="M 358.5,1069.5 C 359.371,1073.02 360.205,1076.69 361,1080.5C 361.673,1083.81 363.506,1085.64 366.5,1086C 364.951,1084.79 363.785,1083.29 363,1081.5C 360.597,1075.1 361.097,1069.1 364.5,1063.5C 365.028,1062.15 365.195,1060.82 365,1059.5C 362.714,1062.59 360.881,1065.25 359.5,1067.5C 360.386,1061.57 363.719,1057.74 369.5,1056C 385.441,1053.61 392.607,1060.44 391,1076.5C 387.348,1089.18 379.181,1093.34 366.5,1089C 359.869,1084.23 357.202,1077.73 358.5,1069.5 Z"/></g>
<g><path style="opacity:1" fill="#f5f6f7" d="M 364.5,1063.5 C 372.956,1056.07 380.123,1057.07 386,1066.5C 388.001,1074.18 386.167,1080.68 380.5,1086C 369.293,1089.15 363.293,1084.81 362.5,1073C 362.731,1069.72 363.397,1066.55 364.5,1063.5 Z"/></g>
<g><path style="opacity:1" fill="#273046" d="M 399.5,1063.5 C 398.491,1068.8 398.324,1074.13 399,1079.5C 399.93,1082.36 401.597,1084.69 404,1086.5C 404.464,1085.91 404.631,1085.24 404.5,1084.5C 409.196,1087.77 414.196,1088.27 419.5,1086C 424.785,1080.98 426.785,1074.81 425.5,1067.5C 427.205,1073.32 426.539,1078.99 423.5,1084.5C 424.2,1084.79 424.867,1085.12 425.5,1085.5C 423.747,1087.22 421.747,1088.72 419.5,1090C 403.202,1092.04 395.702,1084.87 397,1068.5C 397.374,1066.51 398.207,1064.84 399.5,1063.5 Z"/></g>
</svg>
